<?xml version="1.0" standalone="no"?>
<!DOCTYPE svg PUBLIC "-//W3C//DTD SVG 20010904//EN"
 "http://www.w3.org/TR/2001/REC-SVG-20010904/DTD/svg10.dtd">
<svg version="1.0" xmlns="http://www.w3.org/2000/svg"
 width="626.000000pt" height="626.000000pt" viewBox="0 0 626.000000 626.000000"
 preserveAspectRatio="xMidYMid meet">

<g transform="translate(0.000000,626.000000) scale(0.100000,-0.100000)"
fill="#000000" stroke="none">
<path d="M2433 5103 c10 -138 15 -153 47 -153 31 0 34 9 46 158 l7 82 -53 0
-53 0 6 -87z"/>
<path d="M2202 5087 c-57 -16 -92 -48 -92 -85 0 -48 31 -67 105 -65 76 2 102
-15 61 -42 -20 -13 -29 -14 -47 -5 -17 9 -31 10 -60 1 -46 -14 -48 -24 -14
-47 19 -13 39 -15 79 -11 93 9 155 58 142 111 -11 46 -32 56 -112 56 -67 0
-75 2 -72 18 3 13 13 17 43 15 45 -2 105 14 105 28 0 12 -55 39 -77 38 -10 -1
-37 -6 -61 -12z"/>
<path d="M1904 5005 c-29 -29 -34 -30 -34 -11 0 11 -8 12 -40 4 -22 -6 -40
-15 -40 -20 0 -11 70 -322 73 -323 1 -1 22 3 46 8 41 8 43 10 37 38 -21 99
-21 90 7 80 34 -13 92 3 112 32 33 47 10 168 -39 202 -33 24 -93 19 -122 -10z
m71 -69 c9 -14 15 -39 13 -58 -2 -27 -8 -34 -30 -36 -48 -6 -82 83 -40 107 27
16 40 13 57 -13z"/>
<path d="M2970 4995 c-263 -60 -397 -251 -471 -671 -32 -182 -33 -471 -1 -587
58 -211 191 -347 399 -408 156 -45 358 -49 485 -9 224 69 352 276 424 685 25
138 25 439 1 545 -51 227 -191 370 -422 431 -106 28 -322 35 -415 14z m631
-676 c21 -23 34 -29 50 -24 32 10 79 -39 79 -82 0 -23 8 -41 25 -57 35 -33 33
-77 -5 -116 -19 -19 -30 -41 -30 -58 0 -41 -49 -85 -83 -77 -20 5 -32 1 -52
-19 -35 -36 -93 -36 -123 -1 -21 24 -33 29 -61 25 -7 -1 -28 12 -46 30 -25 24
-31 37 -27 60 3 22 -2 35 -22 53 -38 35 -36 84 5 120 23 20 30 33 27 52 -7 35
41 79 89 81 26 1 41 7 51 22 23 35 86 30 123 -9z m-624 -203 c12 -4 32 -2 43
4 32 17 100 -29 100 -67 0 -28 25 -63 46 -63 19 0 36 -91 20 -110 -21 -25 -26
-49 -15 -74 15 -33 -25 -96 -61 -96 -29 -1 -52 -16 -68 -46 -16 -30 -88 -41
-113 -18 -14 13 -28 15 -60 10 -35 -6 -48 -2 -81 19 -30 20 -38 30 -33 46 5
15 -3 28 -28 52 -44 40 -58 98 -32 127 14 15 16 29 11 60 -8 54 25 110 67 110
26 0 67 30 67 49 0 17 83 29 100 16 8 -7 25 -16 37 -19z"/>
<path d="M3469 4161 c-36 -36 -37 -70 -3 -110 51 -61 144 -26 144 54 0 79 -84
112 -141 56z"/>
<path d="M2887 4123 c-15 -2 -32 -14 -39 -26 -16 -31 -39 -46 -69 -47 -40 0
-60 -38 -52 -95 4 -35 2 -50 -11 -64 -20 -22 -13 -91 10 -91 18 0 44 -39 44
-66 0 -13 12 -32 26 -43 21 -16 35 -19 70 -14 34 4 49 2 63 -11 23 -21 89 -12
99 13 9 24 34 40 64 41 34 0 70 53 58 86 -10 24 -3 61 14 83 18 23 6 64 -30
99 -20 19 -34 43 -34 57 0 32 -52 70 -77 56 -23 -11 -69 -3 -84 15 -6 8 -14
13 -18 13 -3 -1 -18 -4 -34 -6z m118 -82 c107 -49 136 -176 59 -261 -44 -48
-82 -64 -144 -58 -87 9 -150 78 -150 168 0 48 17 84 58 123 50 48 112 58 177
28z"/>
<path d="M2870 4022 c-19 -10 -46 -34 -58 -53 -20 -28 -23 -43 -20 -92 4 -51
9 -63 41 -94 31 -32 43 -37 94 -41 49 -3 64 0 92 20 92 63 92 182 -1 251 -38
28 -105 32 -148 9z"/>
<path d="M1201 4955 c-115 -36 -153 -155 -86 -271 43 -74 143 -94 240 -48 58
27 80 68 80 144 -2 148 -96 218 -234 175z m88 -75 c21 -11 51 -78 51 -114 0
-37 -37 -76 -71 -76 -36 0 -65 28 -78 77 -16 56 -14 71 14 98 25 26 54 31 84
15z"/>
<path d="M3903 4953 c9 -2 23 -2 30 0 6 3 -1 5 -18 5 -16 0 -22 -2 -12 -5z"/>
<path d="M1551 4932 c-36 -19 -71 -73 -71 -107 0 -11 9 -38 19 -61 24 -52 75
-79 135 -70 126 19 175 139 91 223 -29 29 -39 33 -87 33 -33 0 -67 -7 -87 -18z
m102 -59 c22 -26 30 -68 17 -93 -9 -16 -19 -20 -43 -18 -26 2 -34 9 -45 40
-13 33 -13 40 2 63 19 29 46 32 69 8z"/>
<path d="M3838 4943 c7 -3 16 -2 19 1 4 3 -2 6 -13 5 -11 0 -14 -3 -6 -6z"/>
<path d="M3980 4932 c0 -6 -8 -13 -19 -17 -20 -6 -39 -83 -23 -94 5 -3 11 -13
14 -22 4 -9 23 -19 43 -22 77 -12 132 73 82 126 -24 26 -97 48 -97 29z m67
-58 c9 -24 -10 -49 -38 -49 -24 0 -36 23 -25 51 7 19 55 18 63 -2z"/>
<path d="M2434 4917 c-3 -8 -3 -27 -1 -43 3 -27 7 -29 48 -29 l44 0 0 40 c0
40 0 40 -43 43 -29 2 -44 -1 -48 -11z"/>
<path d="M3732 4893 c-24 -24 -24 -25 -2 -8 42 33 44 35 37 35 -4 0 -19 -12
-35 -27z"/>
<path d="M3789 4863 l-24 -28 28 24 c25 23 32 31 24 31 -2 0 -14 -12 -28 -27z"/>
<path d="M1350 4401 c-5 -11 -10 -28 -9 -38 0 -10 5 -2 11 17 l11 35 13 -35
c9 -21 12 -25 9 -10 -2 14 -5 31 -5 38 0 19 -18 14 -30 -7z"/>
<path d="M4495 4048 c-214 -198 -420 -388 -458 -422 l-67 -61 -23 -178 c-13
-98 -21 -179 -18 -181 3 -2 33 -7 66 -11 158 -18 709 -95 713 -99 2 -3 -3 -63
-12 -134 -9 -71 -16 -136 -16 -144 0 -14 122 -37 285 -54 22 -2 49 -6 61 -9
20 -4 22 3 39 138 9 78 20 145 24 149 3 4 47 1 96 -6 50 -8 92 -12 94 -10 3 3
14 78 26 168 l21 163 -99 13 -98 12 5 37 c17 101 125 935 123 938 -2 1 -23 5
-48 8 -96 11 -285 36 -304 39 -15 3 -121 -89 -410 -356z m299 -357 c-18 -132
-34 -244 -37 -248 -6 -9 -403 39 -413 50 -3 3 11 21 33 40 21 19 126 116 233
215 107 100 200 181 206 181 6 1 -1 -85 -22 -238z"/>
<path d="M1256 4365 c3 -22 15 -55 26 -73 20 -32 55 -58 65 -48 3 3 17 -3 31
-14 13 -11 28 -17 33 -14 37 23 -2 -57 -203 -413 -126 -225 -248 -442 -271
-484 l-41 -76 32 -173 c17 -95 33 -174 34 -175 2 -2 177 29 390 68 213 39 390
69 392 66 2 -2 16 -67 30 -143 14 -77 27 -140 29 -142 3 -3 356 62 361 67 2 2
-7 64 -21 137 -13 74 -22 139 -20 146 3 7 44 18 91 26 48 7 89 16 91 20 4 6
-52 321 -58 326 -1 1 -44 -6 -94 -15 -51 -10 -95 -16 -98 -13 -14 14 -1 22 36
22 34 0 46 6 72 36 18 21 47 50 65 67 17 17 32 35 32 41 0 6 -12 -2 -26 -17
l-25 -27 -26 20 c-14 11 -31 20 -37 20 -6 -1 1 -8 17 -16 26 -14 37 -34 18
-34 -18 0 -61 42 -55 53 5 9 3 8 -6 0 -17 -16 -1 -36 40 -53 23 -10 28 -16 20
-26 -9 -10 -21 -8 -63 11 -28 13 -53 22 -56 20 -8 -9 22 -35 55 -47 19 -6 34
-16 34 -20 0 -11 -43 -20 -76 -16 l-28 3 -57 315 c-32 173 -70 380 -85 460
-14 80 -27 146 -28 147 -1 1 -370 -65 -371 -67 -1 0 -14 -25 -30 -55 -17 -30
-34 -55 -39 -55 -4 0 -5 8 -1 18 18 43 26 86 23 120 l-3 37 -17 -32 c-10 -18
-18 -40 -17 -50 0 -10 5 -3 10 16 14 46 23 31 15 -24 -7 -43 -20 -58 -29 -32
-2 6 -2 2 0 -11 2 -13 1 -27 -2 -32 -9 -14 -45 7 -45 25 0 8 -4 15 -9 15 -5 0
-12 8 -14 18 -2 9 -3 5 -1 -10 8 -64 -55 -4 -80 75 -14 46 -15 48 -10 12z
m382 -737 c23 -128 42 -240 42 -249 0 -12 -39 -22 -187 -49 -103 -18 -195 -35
-206 -38 -13 -3 -18 0 -16 10 6 21 312 558 319 558 3 0 25 -105 48 -232z m492
-114 c0 -2 -9 0 -20 6 -11 6 -20 13 -20 16 0 2 9 0 20 -6 11 -6 20 -13 20 -16z"/>
<path d="M1372 4310 c0 -19 2 -27 5 -17 2 9 2 25 0 35 -3 9 -5 1 -5 -18z"/>
<path d="M3097 3159 c-80 -19 -151 -68 -198 -136 -57 -82 -81 -178 -104 -405
l-6 -56 -261 5 -261 6 8 -141 7 -141 -39 -6 c-154 -27 -297 -72 -340 -109
l-27 -23 31 -94 c34 -102 51 -198 55 -298 l3 -63 -46 -14 c-31 -9 -58 -27 -79
-51 -39 -44 -72 -115 -64 -137 7 -18 39 -30 54 -21 28 17 -8 -40 -73 -115 -36
-43 -103 -100 -117 -100 -4 0 -17 34 -30 75 -23 72 -25 75 -83 111 -58 36 -59
36 -78 17 -19 -18 -18 -21 11 -163 16 -80 32 -155 35 -167 3 -13 21 -31 43
-42 l39 -20 44 26 c24 15 45 30 47 35 2 4 20 16 40 25 50 24 156 131 221 225
l53 76 85 -64 c47 -35 125 -89 174 -120 69 -44 89 -62 89 -79 0 -22 -2 -22
-171 -27 -108 -3 -174 -9 -182 -17 -8 -8 -1 -11 30 -11 60 0 62 -16 4 -24 -27
-4 -67 -13 -88 -20 l-38 -14 30 -8 c38 -11 680 -12 755 -1 56 8 89 21 79 31
-3 3 -45 10 -93 15 -153 15 -107 24 94 17 107 -3 216 -6 242 -6 l46 0 7 -94 7
-93 76 -7 c134 -11 148 -9 175 24 14 16 27 34 29 40 2 6 33 17 70 25 37 7 108
30 159 51 84 34 96 36 162 31 54 -5 120 1 267 24 107 16 197 35 201 41 4 6 10
56 14 112 4 55 10 121 14 145 l6 43 50 -73 c59 -88 263 -296 300 -305 35 -9
57 2 53 26 -2 11 -41 52 -87 92 -100 86 -211 219 -252 303 -45 93 -47 177 -10
575 17 184 33 350 35 368 4 30 3 32 -24 32 -31 0 -48 16 -33 31 5 5 25 2 48
-6 22 -8 51 -14 65 -13 15 0 7 4 -20 10 -65 14 -78 28 -43 44 l28 13 -27 -5
c-30 -7 -35 4 -18 37 9 16 19 18 53 14 35 -4 37 -3 12 4 -27 8 -24 9 22 10 55
1 82 -15 36 -22 l-28 -4 30 -1 c17 -1 37 2 45 8 23 14 -35 32 -97 29 -60 -3
-69 2 -55 28 9 14 23 17 84 17 59 -1 62 0 16 3 -65 4 -76 19 -23 29 40 7 86
-2 97 -19 6 -9 8 -9 8 1 0 29 -87 41 -132 18 -20 -10 -29 -11 -39 -2 -9 8 -10
8 -5 -1 4 -7 0 -23 -9 -36 -8 -13 -13 -31 -10 -39 3 -8 -1 -21 -10 -28 -8 -7
-15 -24 -15 -39 -1 -14 -9 -36 -20 -49 l-19 -23 -102 17 c-128 20 -138 21
-285 23 l-121 1 -6 123 c-8 187 -47 287 -146 381 -60 56 -132 91 -228 111 -75
16 -187 18 -246 4z m25 -245 l77 -7 -5 -46 c-5 -51 8 -85 42 -108 20 -12 25
-12 49 9 20 18 28 36 33 78 4 30 10 54 15 53 4 -2 14 -3 22 -3 20 0 20 -78 -1
-128 -71 -171 -297 -190 -391 -32 -33 55 -43 118 -26 179 6 22 10 23 57 18 28
-4 86 -9 128 -13z m-838 -736 c3 -24 10 -176 16 -338 6 -162 13 -335 17 -384
l6 -89 -32 19 c-18 10 -79 54 -136 96 -103 77 -104 77 -92 107 9 23 8 37 -5
68 -9 21 -22 90 -28 153 -7 63 -23 156 -36 205 -13 50 -25 97 -27 105 -3 20
85 54 203 79 52 11 98 20 102 20 4 1 9 -18 12 -41z m394 -8 c59 0 62 -1 62
-25 0 -23 -3 -25 -49 -25 -67 0 -74 -16 -11 -25 40 -6 50 -11 50 -26 0 -16 -7
-19 -50 -19 -43 0 -50 -3 -50 -20 0 -18 7 -20 55 -20 52 0 55 -1 55 -25 0 -25
-1 -25 -90 -25 l-90 0 0 73 c0 39 3 89 7 110 5 33 9 38 27 33 12 -3 49 -6 84
-6z m267 -21 c27 -29 27 -57 1 -84 -13 -13 -20 -27 -15 -30 5 -4 18 -24 29
-46 l20 -39 -40 0 c-38 0 -42 3 -62 45 -12 25 -26 45 -30 45 -4 0 -8 -18 -8
-40 0 -39 -1 -40 -35 -40 l-35 0 0 89 c0 127 -2 124 87 119 45 -3 80 -11 88
-19z m231 -14 c20 -26 17 -59 -5 -79 -19 -17 -19 -18 5 -59 13 -23 24 -46 24
-50 0 -5 -17 -7 -37 -5 -33 3 -41 9 -61 46 -27 48 -42 47 -42 -4 0 -32 -2 -34
-36 -34 l-37 0 7 53 c3 28 6 76 6 106 l0 53 81 -4 c66 -3 83 -7 95 -23z m207
3 c31 -16 49 -71 38 -120 -13 -57 -41 -78 -101 -78 -38 0 -55 6 -79 26 -27 23
-31 32 -31 79 0 43 5 57 26 78 36 36 95 42 147 15z m250 -20 c22 -26 22 -53
-3 -78 -19 -19 -19 -19 6 -65 l26 -45 -39 0 c-36 0 -41 3 -61 46 -26 52 -42
50 -42 -7 0 -37 -2 -39 -30 -39 -18 0 -33 6 -36 15 -4 9 -3 58 1 111 l7 96 76
-7 c59 -5 81 -11 95 -27z m-869 -389 l56 -60 58 55 c33 31 62 56 66 56 3 0 33
-28 64 -62 l58 -61 64 58 64 59 57 -64 57 -63 38 30 c22 17 48 40 58 52 11 12
25 21 32 21 16 0 134 -129 134 -146 0 -28 -30 -12 -77 41 -26 30 -52 55 -57
55 -5 0 -33 -22 -62 -50 -29 -27 -57 -50 -63 -50 -5 0 -35 27 -67 60 l-58 61
-56 -56 c-30 -30 -60 -55 -65 -55 -6 0 -35 27 -65 61 l-55 61 -64 -58 -64 -58
-59 63 c-66 72 -53 73 -140 -8 -35 -32 -75 -38 -62 -9 8 18 131 128 143 128 5
0 34 -27 65 -61z"/>
<path d="M2840 2099 c0 -15 5 -20 22 -17 34 5 37 38 4 38 -20 0 -26 -5 -26
-21z"/>
<path d="M3070 2096 c0 -11 9 -16 26 -16 31 0 28 23 -4 28 -15 2 -22 -2 -22
-12z"/>
<path d="M3287 2093 c-4 -3 -7 -26 -7 -49 0 -38 3 -44 24 -50 14 -3 29 -3 35
0 16 10 23 63 11 85 -10 20 -49 29 -63 14z"/>
<path d="M3530 2080 c0 -13 7 -20 19 -20 25 0 38 20 20 31 -23 15 -39 10 -39
-11z"/>
<path d="M4392 2794 c-29 -14 -57 -36 -63 -47 -10 -19 -7 -18 17 5 16 15 49
36 74 47 25 11 40 20 34 20 -5 1 -34 -11 -62 -25z"/>
<path d="M4372 2544 c21 -9 35 -20 32 -25 -3 -5 0 -9 5 -9 6 0 11 4 11 9 0 14
-23 29 -55 36 -26 5 -25 4 7 -11z"/>
<path d="M4751 1175 c-18 -8 -37 -12 -42 -9 -5 3 -18 2 -29 -1 -29 -9 -25 -45
11 -88 52 -64 232 -103 214 -47 -6 18 -2 19 57 13 74 -6 142 15 136 43 -13 68
-253 129 -347 89z"/>
<path d="M1160 1176 c0 -2 7 -7 16 -10 8 -3 12 -2 9 4 -6 10 -25 14 -25 6z"/>
<path d="M1080 1147 c0 -13 7 -32 15 -43 19 -25 19 -34 -2 -34 -11 1 -26 17
-38 42 -11 23 -26 44 -32 46 -21 6 -15 -43 8 -72 l20 -26 -24 0 c-13 0 -36 10
-51 21 -15 12 -30 19 -33 16 -3 -3 10 -15 28 -27 28 -17 43 -20 83 -15 28 3
54 9 60 12 11 7 45 13 86 14 14 1 19 4 13 6 -7 3 -14 19 -14 36 -2 31 -2 31
-6 5 -6 -37 -20 -35 -33 5 -6 21 -9 23 -6 7 2 -14 5 -32 7 -40 3 -10 -3 -15
-16 -15 -13 0 -21 9 -25 31 -12 55 -40 77 -40 31z m-35 -28 c19 -36 12 -52
-10 -23 -14 18 -21 54 -10 54 2 0 12 -14 20 -31z m65 -2 c0 -18 -2 -19 -10 -7
-13 20 -13 43 0 35 6 -3 10 -16 10 -28z"/>
<path d="M5223 1137 c-16 -35 1 -57 45 -57 48 0 68 27 46 59 -22 30 -77 29
-91 -2z m57 -17 c0 -19 -11 -26 -23 -14 -8 8 3 34 14 34 5 0 9 -9 9 -20z"/>
<path d="M1243 1093 c9 -2 23 -2 30 0 6 3 -1 5 -18 5 -16 0 -22 -2 -12 -5z"/>
<path d="M4220 1080 c-22 -22 -25 -42 -10 -71 13 -23 62 -26 80 -4 7 8 28 15
47 15 30 0 34 3 31 23 -2 17 -11 23 -35 25 -17 2 -37 10 -43 18 -17 20 -46 18
-70 -6z"/>
<path d="M2754 1038 c-21 -41 -1 -78 42 -78 18 0 39 -3 48 -6 10 -4 22 5 35
27 20 32 20 33 2 58 -16 21 -27 25 -66 26 -41 0 -49 -3 -61 -27z m80 -13 c7
-18 -2 -45 -15 -45 -13 0 -22 27 -15 45 3 8 10 15 15 15 5 0 11 -7 15 -15z"/>
</g>
</svg>
